<svg width="85" height="39" viewBox="0 0 85 39" fill="none" xmlns="http://www.w3.org/2000/svg">
<path d="M1.91206 36.9394L0 31.8948C1.16622 31.6236 2.08835 31.1354 2.76639 30.4303C3.44442 29.7251 3.78344 28.7352 3.78344 27.4605V9.68236H10.2926V28.1114C10.2926 29.7929 9.95357 31.2982 9.27554 32.6271C8.62462 33.9561 7.67537 35.0002 6.42778 35.7596C5.1802 36.5462 3.67496 36.9394 1.91206 36.9394ZM7.11938 7.0787C6.03452 7.0787 5.15308 6.73968 4.47504 6.06164C3.797 5.38361 3.45799 4.54284 3.45799 3.53935C3.45799 2.53586 3.797 1.69509 4.47504 1.01705C5.15308 0.339018 6.03452 0 7.11938 0C8.23136 0 9.11281 0.339018 9.76372 1.01705C10.4418 1.69509 10.7808 2.53586 10.7808 3.53935C10.7808 4.54284 10.4418 5.38361 9.76372 6.06164C9.11281 6.73968 8.23136 7.0787 7.11938 7.0787Z" fill="white"/>
<path d="M29.7094 31.4066L27.1465 28.3148C25.8717 29.1013 24.2851 29.4946 22.3866 29.4946C19.8643 29.4946 17.898 28.8437 16.4877 27.5418C15.0774 26.2129 14.3723 24.4771 14.3723 22.3345C14.3723 20.3818 14.9689 18.8765 16.1623 17.8188C17.3556 16.7339 19.0914 16.1915 21.3696 16.1915H26.3735V15.5406C26.3735 14.7541 26.0209 14.171 25.3158 13.7913C24.6106 13.3844 23.6071 13.181 22.3053 13.181C21.3018 13.181 20.3661 13.3031 19.4982 13.5472C18.6574 13.7641 17.8438 14.1032 17.0573 14.5642L15.4707 9.84509C16.5013 9.27554 17.6539 8.86872 18.9287 8.62462C20.2034 8.35341 21.4781 8.2178 22.7528 8.2178C25.8989 8.2178 28.3669 8.89584 30.1569 10.2519C31.9469 11.5809 32.842 13.3709 32.842 15.622V24.8975L34.754 27.2164L29.7094 31.4066ZM23.4037 24.45C24.4343 24.45 25.1937 24.1245 25.6819 23.4736C26.1701 22.7956 26.4142 22.1175 26.4142 21.4395V20.3004H23.4037C22.5629 20.3004 21.9256 20.4767 21.4916 20.8293C21.0848 21.1819 20.8814 21.67 20.8814 22.2938C20.8814 22.9719 21.1119 23.5007 21.573 23.8804C22.0612 24.2601 22.6714 24.45 23.4037 24.45Z" fill="white"/>
<path d="M37.5833 29.2912V9.68236H44.0925V29.2912H37.5833ZM40.8379 7.16006C39.7531 7.16006 38.8716 6.82104 38.1936 6.14301C37.5155 5.46497 37.1765 4.62421 37.1765 3.62071C37.1765 2.61722 37.5155 1.77645 38.1936 1.09842C38.8716 0.420382 39.7531 0.0813633 40.8379 0.0813633C41.9499 0.0813633 42.8313 0.420382 43.4823 1.09842C44.1603 1.77645 44.4993 2.61722 44.4993 3.62071C44.4993 4.62421 44.1603 5.46497 43.4823 6.14301C42.8313 6.82104 41.9499 7.16006 40.8379 7.16006Z" fill="white"/>
<path d="M56.9385 30.1048C54.8773 30.1048 52.9788 29.7794 51.243 29.1284C49.5344 28.4775 48.2325 27.7724 47.3375 27.013L49.4123 22.66C50.0904 23.1753 51.0532 23.6635 52.3008 24.1245C53.5483 24.5856 54.823 24.8161 56.1249 24.8161C57.1012 24.8161 57.82 24.667 58.281 24.3686C58.7421 24.0703 58.9726 23.6635 58.9726 23.1482C58.9726 22.6871 58.7963 22.3481 58.4438 22.1311C58.0912 21.9141 57.5623 21.7514 56.8572 21.6429L54.9044 21.3175C52.5991 20.9378 50.8226 20.219 49.575 19.1613C48.3275 18.0764 47.7037 16.6255 47.7037 14.8083C47.7037 13.6421 47.9884 12.5708 48.558 11.5944C49.1547 10.618 50.0632 9.83153 51.2837 9.23485C52.5313 8.63818 54.145 8.33985 56.1249 8.33985C58.0776 8.33985 59.8134 8.5975 61.3322 9.11281C62.8781 9.60099 64.0308 10.1163 64.7902 10.6587L63.1222 15.0117C62.6883 14.7134 62.1052 14.4557 61.3729 14.2388C60.6677 13.9947 59.9083 13.8048 59.0947 13.6692C58.281 13.5336 57.5081 13.4658 56.7758 13.4658C55.0671 13.4658 54.2128 13.8862 54.2128 14.7269C54.2128 15.1338 54.3755 15.4728 54.701 15.744C55.0265 15.9881 55.3926 16.1373 55.7994 16.1915L58.281 16.5983C61.0203 17.0323 62.9052 17.7781 63.9359 18.8358C64.9665 19.8936 65.4818 21.2361 65.4818 22.8634C65.4818 24.1381 65.197 25.3314 64.6274 26.4434C64.0579 27.5283 63.1493 28.4097 61.9017 29.0878C60.6542 29.7658 58.9997 30.1048 56.9385 30.1048Z" fill="white"/>
<path d="M71.7023 29.7387C70.5361 29.7387 69.6004 29.3861 68.8953 28.6809C68.1901 27.9487 67.8375 27.0536 67.8375 25.9959C67.8375 24.9111 68.1901 24.0025 68.8953 23.2702C69.6004 22.5379 70.5361 22.1718 71.7023 22.1718C72.8686 22.1718 73.8042 22.5379 74.5094 23.2702C75.2417 24.0025 75.6078 24.9111 75.6078 25.9959C75.6078 27.0536 75.2417 27.9487 74.5094 28.6809C73.8042 29.3861 72.8686 29.7387 71.7023 29.7387Z" fill="white"/>
<path d="M12.0333 34.9499C11.9366 34.9499 11.8191 34.9614 11.6809 34.9845C11.5473 35.0029 11.4276 35.0282 11.3216 35.0605L11.2318 34.7288C11.5404 34.6229 11.8283 34.5699 12.0955 34.5699C12.3949 34.5699 12.6229 34.616 12.7795 34.7081C12.9177 34.8094 13.0121 34.9177 13.0628 35.0328C13.1181 35.148 13.1457 35.3161 13.1457 35.5372V37.2507H12.8071L12.7104 37.002C12.4479 37.2139 12.1784 37.3198 11.902 37.3198C11.6625 37.3198 11.4598 37.2507 11.294 37.1125C11.1328 36.9743 11.0522 36.7993 11.0522 36.5874C11.0522 36.3801 11.1144 36.2097 11.2387 36.0761C11.3677 35.938 11.5243 35.8458 11.7086 35.7998C11.9435 35.7399 12.2728 35.7053 12.6966 35.6961V35.6754C12.6966 35.4865 12.6782 35.3484 12.6413 35.2608C12.5676 35.0536 12.3649 34.9499 12.0333 34.9499ZM11.9642 36.9605C12.1162 36.9605 12.2498 36.9352 12.3649 36.8845C12.4801 36.8293 12.5907 36.7533 12.6966 36.6565V36.0209C12.3788 36.0255 12.1439 36.0439 11.9918 36.0761C11.8214 36.113 11.6947 36.1683 11.6118 36.242C11.5289 36.3111 11.4875 36.4101 11.4875 36.5391C11.4875 36.6726 11.5335 36.7763 11.6257 36.85C11.7224 36.9237 11.8352 36.9605 11.9642 36.9605Z" fill="white"/>
<path d="M15.4277 37.2507V33.575H15.8768V34.6666C16.0565 34.5837 16.2707 34.5423 16.5194 34.5423C16.8925 34.5423 17.1965 34.6528 17.4314 34.8739C17.6756 35.118 17.7976 35.4773 17.7976 35.9518C17.7976 36.3617 17.6917 36.6911 17.4798 36.9398C17.2725 37.1839 16.9731 37.306 16.5816 37.306C16.3236 37.306 16.0726 37.2254 15.8285 37.0642L15.7456 37.2507H15.4277ZM16.471 36.926C16.7658 36.926 16.9823 36.8454 17.1205 36.6842C17.2587 36.5229 17.3278 36.2696 17.3278 35.9241C17.3278 35.6155 17.2541 35.3691 17.1067 35.1848C16.9639 35.0006 16.7497 34.9085 16.4641 34.9085C16.2476 34.9085 16.0519 34.943 15.8768 35.0121V36.7671C15.9828 36.8223 16.0772 36.8638 16.1601 36.8914C16.2476 36.9145 16.3513 36.926 16.471 36.926Z" fill="white"/>
<path d="M19.3043 34.9499C19.2076 34.9499 19.0901 34.9614 18.9519 34.9845C18.8183 35.0029 18.6986 35.0282 18.5926 35.0605L18.5028 34.7288C18.8114 34.6229 19.0993 34.5699 19.3665 34.5699C19.6659 34.5699 19.8939 34.616 20.0505 34.7081C20.1887 34.8094 20.2831 34.9177 20.3338 35.0328C20.3891 35.148 20.4167 35.3161 20.4167 35.5372V37.2507H20.0781L19.9814 37.002C19.7189 37.2139 19.4494 37.3198 19.173 37.3198C18.9335 37.3198 18.7308 37.2507 18.565 37.1125C18.4038 36.9743 18.3232 36.7993 18.3232 36.5874C18.3232 36.3801 18.3854 36.2097 18.5097 36.0761C18.6387 35.938 18.7953 35.8458 18.9796 35.7998C19.2145 35.7399 19.5438 35.7053 19.9676 35.6961V35.6754C19.9676 35.4865 19.9492 35.3484 19.9123 35.2608C19.8386 35.0536 19.6359 34.9499 19.3043 34.9499ZM19.2352 36.9605C19.3872 36.9605 19.5208 36.9352 19.6359 36.8845C19.7511 36.8293 19.8617 36.7533 19.9676 36.6565V36.0209C19.6498 36.0255 19.4148 36.0439 19.2628 36.0761C19.0924 36.113 18.9657 36.1683 18.8828 36.242C18.7999 36.3111 18.7585 36.4101 18.7585 36.5391C18.7585 36.6726 18.8045 36.7763 18.8966 36.85C18.9934 36.9237 19.1062 36.9605 19.2352 36.9605Z" fill="white"/>
<path d="M22.3096 34.563C22.411 34.563 22.4916 34.5699 22.5515 34.5837C22.616 34.5929 22.6781 34.6114 22.738 34.639L22.5791 35.0397C22.4593 34.9845 22.3281 34.9568 22.1853 34.9568C21.9918 34.9568 21.8007 35.0213 21.6118 35.1503V37.2507H21.1627V34.5975H21.4874L21.5842 34.8255C21.8145 34.6505 22.0563 34.563 22.3096 34.563Z" fill="white"/>
<path d="M24.251 34.563C24.601 34.563 24.8705 34.6689 25.0593 34.8808C25.2482 35.0881 25.3426 35.3829 25.3426 35.7652V36.007L25.315 36.0623H23.4978C23.4978 36.288 23.583 36.4976 23.7535 36.6911C23.9147 36.8523 24.1657 36.9329 24.5066 36.9329C24.7323 36.9329 24.9465 36.8983 25.1492 36.8293L25.2321 37.1609C24.9511 37.2576 24.6678 37.306 24.3822 37.306C23.9539 37.306 23.6268 37.1908 23.4011 36.9605C23.1754 36.7302 23.0625 36.4009 23.0625 35.9725C23.0625 35.5672 23.1616 35.2332 23.3596 34.9706C23.5715 34.6989 23.8686 34.563 24.251 34.563ZM24.8866 35.703C24.8866 35.4727 24.8359 35.2839 24.7346 35.1365C24.6379 34.9891 24.4928 34.9154 24.2993 34.9154C24.0552 34.9154 23.8686 34.9891 23.7397 35.1365C23.6107 35.2839 23.5324 35.4727 23.5047 35.703H24.8866Z" fill="white"/>
<path d="M27.5668 35.938H25.8671V35.6132H27.5668V35.938Z" fill="white"/>
<path d="M28.3827 37.2507V33.575H28.8318V34.6666C29.0115 34.5837 29.2257 34.5423 29.4744 34.5423C29.8475 34.5423 30.1515 34.6528 30.3864 34.8739C30.6306 35.118 30.7526 35.4773 30.7526 35.9518C30.7526 36.3617 30.6467 36.6911 30.4348 36.9398C30.2275 37.1839 29.9281 37.306 29.5366 37.306C29.2786 37.306 29.0276 37.2254 28.7835 37.0642L28.7006 37.2507H28.3827ZM29.426 36.926C29.7208 36.926 29.9373 36.8454 30.0755 36.6842C30.2137 36.5229 30.2828 36.2696 30.2828 35.9241C30.2828 35.6155 30.2091 35.3691 30.0617 35.1848C29.9189 35.0006 29.7047 34.9085 29.4191 34.9085C29.2026 34.9085 29.0069 34.943 28.8318 35.0121V36.7671C28.9378 36.8223 29.0322 36.8638 29.1151 36.8914C29.2026 36.9145 29.3063 36.926 29.426 36.926Z" fill="white"/>
<path d="M32.5495 37.3129C32.1488 37.3129 31.8355 37.1885 31.6098 36.9398C31.3887 36.6911 31.2782 36.3571 31.2782 35.938C31.2782 35.5142 31.391 35.1802 31.6167 34.9361C31.847 34.6874 32.1649 34.563 32.5702 34.563C32.9756 34.563 33.2888 34.6851 33.5099 34.9292C33.731 35.1733 33.8415 35.5073 33.8415 35.931C33.8415 36.3456 33.7264 36.6796 33.4961 36.9329C33.2658 37.1862 32.9502 37.3129 32.5495 37.3129ZM32.5702 34.9154C32.3077 34.9154 32.1027 35.0121 31.9553 35.2056C31.8125 35.399 31.7411 35.6432 31.7411 35.938C31.7411 36.2327 31.8125 36.4746 31.9553 36.6634C32.1027 36.8523 32.3077 36.9467 32.5702 36.9467C32.8282 36.9467 33.0285 36.8523 33.1713 36.6634C33.3141 36.47 33.3855 36.2281 33.3855 35.938C33.3855 35.6432 33.3118 35.399 33.1644 35.2056C33.0216 35.0121 32.8236 34.9154 32.5702 34.9154Z" fill="white"/>
<path d="M36.2451 35.5648C36.2451 35.3391 36.2014 35.1779 36.1139 35.0812C36.0309 34.9845 35.8835 34.9361 35.6717 34.9361C35.4459 34.9361 35.2018 34.9983 34.9393 35.1227V37.2507H34.4902V34.5975H34.8011L34.8978 34.8186C35.2156 34.6436 35.5266 34.5561 35.8306 34.5561C36.1115 34.5561 36.3257 34.6367 36.4731 34.7979C36.6205 34.9545 36.6942 35.1733 36.6942 35.4543V37.2507H36.2451V35.5648Z" fill="white"/>
<path d="M38.5069 34.563C38.8569 34.563 39.1264 34.6689 39.3153 34.8808C39.5041 35.0881 39.5985 35.3829 39.5985 35.7652V36.007L39.5709 36.0623H37.7537C37.7537 36.288 37.839 36.4976 38.0094 36.6911C38.1706 36.8523 38.4216 36.9329 38.7625 36.9329C38.9882 36.9329 39.2024 36.8983 39.4051 36.8293L39.488 37.1609C39.207 37.2576 38.9237 37.306 38.6381 37.306C38.2098 37.306 37.8827 37.1908 37.657 36.9605C37.4313 36.7302 37.3185 36.4009 37.3185 35.9725C37.3185 35.5672 37.4175 35.2332 37.6156 34.9706C37.8274 34.6989 38.1245 34.563 38.5069 34.563ZM39.1425 35.703C39.1425 35.4727 39.0919 35.2839 38.9905 35.1365C38.8938 34.9891 38.7487 34.9154 38.5552 34.9154C38.3111 34.9154 38.1245 34.9891 37.9956 35.1365C37.8666 35.2839 37.7883 35.4727 37.7607 35.703H39.1425Z" fill="white"/>
<path d="M41.0696 36.9329C41.2308 36.9329 41.3667 36.903 41.4772 36.8431C41.5924 36.7786 41.65 36.6865 41.65 36.5667C41.65 36.47 41.6085 36.394 41.5256 36.3387C41.4427 36.2834 41.2676 36.2005 41.0005 36.09L40.7379 35.9863C40.6228 35.931 40.5283 35.8827 40.4546 35.8412C40.3809 35.7952 40.3142 35.7284 40.2543 35.6409C40.1944 35.5487 40.1645 35.4336 40.1645 35.2954C40.1645 35.0466 40.2658 34.8624 40.4685 34.7426C40.6757 34.6229 40.9291 34.563 41.2285 34.563C41.4818 34.563 41.7352 34.6206 41.9885 34.7357L41.878 35.0674C41.6707 34.9799 41.4703 34.9361 41.2769 34.9361C41.0788 34.9361 40.9176 34.966 40.7932 35.0259C40.6734 35.0812 40.6136 35.1618 40.6136 35.2677C40.6136 35.3737 40.655 35.4566 40.7379 35.5165C40.8254 35.5764 40.9728 35.6455 41.1801 35.7238L41.4081 35.8136C41.6615 35.9195 41.8388 36.0301 41.9402 36.1452C42.0415 36.2604 42.0922 36.4124 42.0922 36.6012C42.0922 36.7947 42.0023 36.9628 41.8227 37.1056C41.643 37.2438 41.4035 37.3129 41.1041 37.3129C40.7633 37.3129 40.427 37.2461 40.0954 37.1125L40.2197 36.774C40.5191 36.8799 40.8024 36.9329 41.0696 36.9329Z" fill="white"/>
<path d="M44.5562 34.0863C44.4733 34.0863 44.4042 34.0586 44.3489 34.0033C44.2936 33.9435 44.266 33.8744 44.266 33.7961C44.266 33.7224 44.2936 33.6579 44.3489 33.6026C44.4042 33.5427 44.4733 33.5128 44.5562 33.5128C44.6345 33.5128 44.7013 33.5427 44.7566 33.6026C44.8118 33.6579 44.8395 33.7224 44.8395 33.7961C44.8395 33.8744 44.8118 33.9435 44.7566 34.0033C44.7059 34.0586 44.6391 34.0863 44.5562 34.0863ZM44.7773 37.2507H44.3282V34.5975H44.7773V37.2507Z" fill="white"/>
<path d="M47.3217 35.5648C47.3217 35.3391 47.2779 35.1779 47.1904 35.0812C47.1075 34.9845 46.9601 34.9361 46.7482 34.9361C46.5225 34.9361 46.2784 34.9983 46.0158 35.1227V37.2507H45.5667V34.5975H45.8776L45.9743 34.8186C46.2922 34.6436 46.6031 34.5561 46.9071 34.5561C47.1881 34.5561 47.4023 34.6367 47.5497 34.7979C47.6971 34.9545 47.7708 35.1733 47.7708 35.4543V37.2507H47.3217V35.5648Z" fill="white"/>
<path d="M49.2725 37.2507L48.2844 34.5975H48.7681L49.5005 36.6772L49.5281 36.8154L49.5488 36.6772L50.2881 34.5975H50.7511L49.7699 37.2507H49.2725Z" fill="white"/>
<path d="M52.3525 34.563C52.7026 34.563 52.9721 34.6689 53.1609 34.8808C53.3498 35.0881 53.4442 35.3829 53.4442 35.7652V36.007L53.4166 36.0623H51.5994C51.5994 36.288 51.6846 36.4976 51.855 36.6911C52.0163 36.8523 52.2673 36.9329 52.6082 36.9329C52.8339 36.9329 53.0481 36.8983 53.2507 36.8293L53.3336 37.1609C53.0527 37.2576 52.7694 37.306 52.4838 37.306C52.0554 37.306 51.7284 37.1908 51.5027 36.9605C51.277 36.7302 51.1641 36.4009 51.1641 35.9725C51.1641 35.5672 51.2631 35.2332 51.4612 34.9706C51.6731 34.6989 51.9702 34.563 52.3525 34.563ZM52.9882 35.703C52.9882 35.4727 52.9375 35.2839 52.8362 35.1365C52.7394 34.9891 52.5943 34.9154 52.4009 34.9154C52.1568 34.9154 51.9702 34.9891 51.8412 35.1365C51.7123 35.2839 51.6339 35.4727 51.6063 35.703H52.9882Z" fill="white"/>
<path d="M55.8342 35.5648C55.8342 35.3391 55.7904 35.1779 55.7029 35.0812C55.62 34.9845 55.4726 34.9361 55.2607 34.9361C55.035 34.9361 54.7909 34.9983 54.5283 35.1227V37.2507H54.0792V34.5975H54.3901L54.4869 34.8186C54.8047 34.6436 55.1156 34.5561 55.4196 34.5561C55.7006 34.5561 55.9148 34.6367 56.0622 34.7979C56.2096 34.9545 56.2833 35.1733 56.2833 35.4543V37.2507H55.8342V35.5648Z" fill="white"/>
<path d="M57.9439 37.306C57.6767 37.306 57.4856 37.2346 57.3704 37.0918C57.2599 36.9444 57.2046 36.7233 57.2046 36.4285V34.9706H56.7555V34.5975H57.2046V33.9481L57.6537 33.9135V34.5975H58.5243V34.9706H57.6537V36.4009C57.6537 36.5851 57.6813 36.7187 57.7366 36.8016C57.7965 36.8845 57.9094 36.926 58.0752 36.926C58.2318 36.926 58.3723 36.9122 58.4966 36.8845L58.5726 37.1885C58.3654 37.2668 58.1558 37.306 57.9439 37.306Z" fill="white"/>
<path d="M60.23 37.3129C59.8293 37.3129 59.5161 37.1885 59.2904 36.9398C59.0693 36.6911 58.9587 36.3571 58.9587 35.938C58.9587 35.5142 59.0716 35.1802 59.2973 34.9361C59.5276 34.6874 59.8454 34.563 60.2508 34.563C60.6561 34.563 60.9693 34.6851 61.1904 34.9292C61.4115 35.1733 61.5221 35.5073 61.5221 35.931C61.5221 36.3456 61.4069 36.6796 61.1766 36.9329C60.9463 37.1862 60.6308 37.3129 60.23 37.3129ZM60.2508 34.9154C59.9882 34.9154 59.7832 35.0121 59.6358 35.2056C59.493 35.399 59.4216 35.6432 59.4216 35.938C59.4216 36.2327 59.493 36.4746 59.6358 36.6634C59.7832 36.8523 59.9882 36.9467 60.2508 36.9467C60.5087 36.9467 60.7091 36.8523 60.8519 36.6634C60.9947 36.47 61.0661 36.2281 61.0661 35.938C61.0661 35.6432 60.9924 35.399 60.845 35.2056C60.7022 35.0121 60.5041 34.9154 60.2508 34.9154Z" fill="white"/>
<path d="M63.3176 34.563C63.419 34.563 63.4996 34.5699 63.5595 34.5837C63.624 34.5929 63.6861 34.6114 63.746 34.639L63.5871 35.0397C63.4673 34.9845 63.3361 34.9568 63.1933 34.9568C62.9998 34.9568 62.8086 35.0213 62.6198 35.1503V37.2507H62.1707V34.5975H62.4954L62.5922 34.8255C62.8225 34.6505 63.0643 34.563 63.3176 34.563Z" fill="white"/>
<path d="M64.9757 38.674H64.5127L65.024 37.3889L63.96 34.5975H64.4298L65.2451 36.7947L66.0604 34.5975H66.4888L64.9757 38.674Z" fill="white"/>
<path d="M69.3979 36.9329C69.5591 36.9329 69.695 36.903 69.8055 36.8431C69.9207 36.7786 69.9782 36.6865 69.9782 36.5667C69.9782 36.47 69.9368 36.394 69.8539 36.3387C69.771 36.2834 69.5959 36.2005 69.3288 36.09L69.0662 35.9863C68.951 35.931 68.8566 35.8827 68.7829 35.8412C68.7092 35.7952 68.6424 35.7284 68.5826 35.6409C68.5227 35.5487 68.4927 35.4336 68.4927 35.2954C68.4927 35.0466 68.5941 34.8624 68.7967 34.7426C69.004 34.6229 69.2574 34.563 69.5568 34.563C69.8101 34.563 70.0635 34.6206 70.3168 34.7357L70.2062 35.0674C69.999 34.9799 69.7986 34.9361 69.6051 34.9361C69.4071 34.9361 69.2458 34.966 69.1215 35.0259C69.0017 35.0812 68.9418 35.1618 68.9418 35.2677C68.9418 35.3737 68.9833 35.4566 69.0662 35.5165C69.1537 35.5764 69.3011 35.6455 69.5084 35.7238L69.7364 35.8136C69.9898 35.9195 70.1671 36.0301 70.2684 36.1452C70.3698 36.2604 70.4204 36.4124 70.4204 36.6012C70.4204 36.7947 70.3306 36.9628 70.151 37.1056C69.9713 37.2438 69.7318 37.3129 69.4324 37.3129C69.0915 37.3129 68.7553 37.2461 68.4236 37.1125L68.548 36.774C68.8474 36.8799 69.1307 36.9329 69.3979 36.9329Z" fill="white"/>
<path d="M71.9012 38.674H71.4383L71.9496 37.3889L70.8855 34.5975H71.3554L72.1707 36.7947L72.986 34.5975H73.4143L71.9012 38.674Z" fill="white"/>
<path d="M74.8012 36.9329C74.9624 36.9329 75.0983 36.903 75.2088 36.8431C75.324 36.7786 75.3816 36.6865 75.3816 36.5667C75.3816 36.47 75.3401 36.394 75.2572 36.3387C75.1743 36.2834 74.9992 36.2005 74.7321 36.09L74.4695 35.9863C74.3544 35.931 74.2599 35.8827 74.1862 35.8412C74.1125 35.7952 74.0457 35.7284 73.9859 35.6409C73.926 35.5487 73.896 35.4336 73.896 35.2954C73.896 35.0466 73.9974 34.8624 74.2001 34.7426C74.4073 34.6229 74.6607 34.563 74.9601 34.563C75.2134 34.563 75.4668 34.6206 75.7201 34.7357L75.6096 35.0674C75.4023 34.9799 75.2019 34.9361 75.0085 34.9361C74.8104 34.9361 74.6492 34.966 74.5248 35.0259C74.405 35.0812 74.3452 35.1618 74.3452 35.2677C74.3452 35.3737 74.3866 35.4566 74.4695 35.5165C74.557 35.5764 74.7044 35.6455 74.9117 35.7238L75.1397 35.8136C75.3931 35.9195 75.5704 36.0301 75.6717 36.1452C75.7731 36.2604 75.8238 36.4124 75.8238 36.6012C75.8238 36.7947 75.7339 36.9628 75.5543 37.1056C75.3746 37.2438 75.1351 37.3129 74.8357 37.3129C74.4949 37.3129 74.1586 37.2461 73.827 37.1125L73.9513 36.774C74.2507 36.8799 74.534 36.9329 74.8012 36.9329Z" fill="white"/>
<path d="M77.4358 37.306C77.1686 37.306 76.9775 37.2346 76.8623 37.0918C76.7518 36.9444 76.6965 36.7233 76.6965 36.4285V34.9706H76.2474V34.5975H76.6965V33.9481L77.1456 33.9135V34.5975H78.0162V34.9706H77.1456V36.4009C77.1456 36.5851 77.1732 36.7187 77.2285 36.8016C77.2884 36.8845 77.4012 36.926 77.5671 36.926C77.7237 36.926 77.8642 36.9122 77.9885 36.8845L78.0645 37.1885C77.8573 37.2668 77.6477 37.306 77.4358 37.306Z" fill="white"/>
<path d="M79.639 34.563C79.9891 34.563 80.2585 34.6689 80.4474 34.8808C80.6362 35.0881 80.7307 35.3829 80.7307 35.7652V36.007L80.703 36.0623H78.8859C78.8859 36.288 78.9711 36.4976 79.1415 36.6911C79.3027 36.8523 79.5538 36.9329 79.8946 36.9329C80.1204 36.9329 80.3345 36.8983 80.5372 36.8293L80.6201 37.1609C80.3391 37.2576 80.0559 37.306 79.7703 37.306C79.3419 37.306 79.0149 37.1908 78.7892 36.9605C78.5634 36.7302 78.4506 36.4009 78.4506 35.9725C78.4506 35.5672 78.5496 35.2332 78.7477 34.9706C78.9596 34.6989 79.2567 34.563 79.639 34.563ZM80.2747 35.703C80.2747 35.4727 80.224 35.2839 80.1227 35.1365C80.0259 34.9891 79.8808 34.9154 79.6874 34.9154C79.4432 34.9154 79.2567 34.9891 79.1277 35.1365C78.9987 35.2839 78.9204 35.4727 78.8928 35.703H80.2747Z" fill="white"/>
<path d="M84.5371 35.5648C84.5371 35.1319 84.3643 34.9154 84.0189 34.9154C83.8484 34.9154 83.6366 34.9937 83.3832 35.1503C83.397 35.201 83.4039 35.3023 83.4039 35.4543V37.2507H82.9548V35.5648C82.9548 35.1319 82.7798 34.9154 82.4297 34.9154C82.2639 34.9154 82.0589 34.9822 81.8148 35.1157V37.2507H81.3657V34.5975H81.6766L81.7733 34.8186C81.9299 34.7127 82.075 34.639 82.2086 34.5975C82.3146 34.5699 82.4366 34.5561 82.5748 34.5561C82.7268 34.5561 82.8604 34.586 82.9756 34.6459C83.0953 34.7058 83.1921 34.7887 83.2658 34.8946C83.4178 34.7841 83.5629 34.7012 83.701 34.6459C83.8392 34.586 83.9912 34.5561 84.1571 34.5561C84.4288 34.5561 84.6361 34.639 84.7789 34.8048C84.9263 34.966 85 35.1825 85 35.4543V37.2507H84.5371V35.5648Z" fill="white"/>
</svg>
