<svg width="385" height="175" viewBox="0 0 385 175" fill="none" xmlns="http://www.w3.org/2000/svg">
<path d="M8.648 167.072L0 144.256C5.27467 143.029 9.44533 140.821 12.512 137.632C15.5787 134.443 17.112 129.965 17.112 124.2V43.792H46.552V127.144C46.552 134.749 45.0187 141.557 41.952 147.568C39.008 153.579 34.7147 158.301 29.072 161.736C23.4293 165.293 16.6213 167.072 8.648 167.072ZM32.2 32.016C27.2933 32.016 23.3067 30.4827 20.24 27.416C17.1733 24.3493 15.64 20.5467 15.64 16.008C15.64 11.4693 17.1733 7.66667 20.24 4.6C23.3067 1.53333 27.2933 0 32.2 0C37.2293 0 41.216 1.53333 44.16 4.6C47.2267 7.66667 48.76 11.4693 48.76 16.008C48.76 20.5467 47.2267 24.3493 44.16 27.416C41.216 30.4827 37.2293 32.016 32.2 32.016Z" fill="black"/>
<path d="M134.372 142.048L122.78 128.064C117.014 131.621 109.838 133.4 101.252 133.4C89.8438 133.4 80.9504 130.456 74.5718 124.568C68.1931 118.557 65.0038 110.707 65.0038 101.016C65.0038 92.184 67.7024 85.376 73.0998 80.592C78.4971 75.6853 86.3477 73.232 96.6517 73.232H119.284V70.288C119.284 66.7307 117.689 64.0933 114.5 62.376C111.31 60.536 106.772 59.616 100.884 59.616C96.3451 59.616 92.1131 60.168 88.1878 61.272C84.3851 62.2533 80.7051 63.7867 77.1478 65.872L69.9717 44.528C74.6331 41.952 79.8464 40.112 85.6118 39.008C91.3771 37.7813 97.1424 37.168 102.908 37.168C117.137 37.168 128.3 40.2347 136.396 46.368C144.492 52.3787 148.54 60.4747 148.54 70.656V112.608L157.188 123.096L134.372 142.048ZM105.852 110.584C110.513 110.584 113.948 109.112 116.156 106.168C118.364 103.101 119.468 100.035 119.468 96.968V91.816H105.852C102.049 91.816 99.1664 92.6133 97.2038 94.208C95.3638 95.8027 94.4437 98.0107 94.4437 100.832C94.4437 103.899 95.4864 106.291 97.5718 108.008C99.7798 109.725 102.54 110.584 105.852 110.584Z" fill="black"/>
<path d="M169.984 132.48V43.792H199.424V132.48H169.984ZM184.704 32.384C179.798 32.384 175.811 30.8507 172.744 27.784C169.678 24.7173 168.144 20.9147 168.144 16.376C168.144 11.8373 169.678 8.03467 172.744 4.968C175.811 1.90133 179.798 0.367995 184.704 0.367995C189.734 0.367995 193.72 1.90133 196.664 4.968C199.731 8.03467 201.264 11.8373 201.264 16.376C201.264 20.9147 199.731 24.7173 196.664 27.784C193.72 30.8507 189.734 32.384 184.704 32.384Z" fill="black"/>
<path d="M257.525 136.16C248.203 136.16 239.616 134.688 231.765 131.744C224.037 128.8 218.149 125.611 214.101 122.176L223.485 102.488C226.552 104.819 230.907 107.027 236.549 109.112C242.192 111.197 247.957 112.24 253.845 112.24C258.261 112.24 261.512 111.565 263.597 110.216C265.683 108.867 266.725 107.027 266.725 104.696C266.725 102.611 265.928 101.077 264.333 100.096C262.739 99.1147 260.347 98.3787 257.157 97.888L248.325 96.416C237.899 94.6987 229.864 91.448 224.221 86.664C218.579 81.7573 215.757 75.1947 215.757 66.976C215.757 61.7013 217.045 56.856 219.621 52.44C222.32 48.024 226.429 44.4667 231.949 41.768C237.592 39.0693 244.891 37.72 253.845 37.72C262.677 37.72 270.528 38.8853 277.397 41.216C284.389 43.424 289.603 45.7547 293.037 48.208L285.493 67.896C283.531 66.5467 280.893 65.3813 277.581 64.4C274.392 63.296 270.957 62.4373 267.277 61.824C263.597 61.2107 260.101 60.904 256.789 60.904C249.061 60.904 245.197 62.8053 245.197 66.608C245.197 68.448 245.933 69.9813 247.405 71.208C248.877 72.312 250.533 72.9867 252.373 73.232L263.597 75.072C275.987 77.0347 284.512 80.408 289.173 85.192C293.835 89.976 296.165 96.048 296.165 103.408C296.165 109.173 294.877 114.571 292.301 119.6C289.725 124.507 285.616 128.493 279.973 131.56C274.331 134.627 266.848 136.16 257.525 136.16Z" fill="black"/>
<path d="M324.3 134.504C319.025 134.504 314.793 132.909 311.604 129.72C308.415 126.408 306.82 122.36 306.82 117.576C306.82 112.669 308.415 108.56 311.604 105.248C314.793 101.936 319.025 100.28 324.3 100.28C329.575 100.28 333.807 101.936 336.996 105.248C340.308 108.56 341.964 112.669 341.964 117.576C341.964 122.36 340.308 126.408 336.996 129.72C333.807 132.909 329.575 134.504 324.3 134.504Z" fill="black"/>
<path d="M54.425 158.074C53.9875 158.074 53.4562 158.126 52.8312 158.23C52.2271 158.313 51.6854 158.428 51.2062 158.574L50.8 157.074C52.1958 156.595 53.4979 156.355 54.7062 156.355C56.0604 156.355 57.0917 156.563 57.8 156.98C58.425 157.438 58.8521 157.928 59.0812 158.449C59.3312 158.97 59.4562 159.73 59.4562 160.73V168.48H57.925L57.4875 167.355C56.3 168.313 55.0812 168.793 53.8312 168.793C52.7479 168.793 51.8312 168.48 51.0812 167.855C50.3521 167.23 49.9875 166.438 49.9875 165.48C49.9875 164.543 50.2687 163.772 50.8312 163.168C51.4146 162.543 52.1229 162.126 52.9562 161.918C54.0187 161.647 55.5083 161.49 57.425 161.449V161.355C57.425 160.501 57.3417 159.876 57.175 159.48C56.8417 158.543 55.925 158.074 54.425 158.074ZM54.1125 167.168C54.8 167.168 55.4042 167.053 55.925 166.824C56.4458 166.574 56.9458 166.23 57.425 165.793V162.918C55.9875 162.938 54.925 163.022 54.2375 163.168C53.4667 163.334 52.8937 163.584 52.5187 163.918C52.1437 164.23 51.9562 164.678 51.9562 165.261C51.9562 165.865 52.1646 166.334 52.5812 166.668C53.0187 167.001 53.5292 167.168 54.1125 167.168Z" fill="black"/>
<path d="M69.7775 168.48V151.855H71.8088V156.793C72.6213 156.418 73.59 156.23 74.715 156.23C76.4025 156.23 77.7775 156.73 78.84 157.73C79.9442 158.834 80.4963 160.459 80.4963 162.605C80.4963 164.459 80.0171 165.949 79.0588 167.074C78.1213 168.178 76.7671 168.73 74.9963 168.73C73.8296 168.73 72.6942 168.365 71.59 167.636L71.215 168.48H69.7775ZM74.4963 167.011C75.8296 167.011 76.8088 166.647 77.4338 165.918C78.0588 165.188 78.3713 164.043 78.3713 162.48C78.3713 161.084 78.038 159.97 77.3713 159.136C76.7255 158.303 75.7567 157.886 74.465 157.886C73.4859 157.886 72.6005 158.043 71.8088 158.355V166.293C72.288 166.543 72.715 166.73 73.09 166.855C73.4859 166.959 73.9546 167.011 74.4963 167.011Z" fill="black"/>
<path d="M87.3107 158.074C86.8732 158.074 86.342 158.126 85.717 158.23C85.1128 158.313 84.5712 158.428 84.092 158.574L83.6857 157.074C85.0816 156.595 86.3837 156.355 87.592 156.355C88.9462 156.355 89.9774 156.563 90.6857 156.98C91.3107 157.438 91.7378 157.928 91.967 158.449C92.217 158.97 92.342 159.73 92.342 160.73V168.48H90.8107L90.3732 167.355C89.1857 168.313 87.967 168.793 86.717 168.793C85.6337 168.793 84.717 168.48 83.967 167.855C83.2378 167.23 82.8732 166.438 82.8732 165.48C82.8732 164.543 83.1545 163.772 83.717 163.168C84.3003 162.543 85.0087 162.126 85.842 161.918C86.9045 161.647 88.3941 161.49 90.3107 161.449V161.355C90.3107 160.501 90.2274 159.876 90.0607 159.48C89.7274 158.543 88.8107 158.074 87.3107 158.074ZM86.9982 167.168C87.6857 167.168 88.2899 167.053 88.8107 166.824C89.3316 166.574 89.8316 166.23 90.3107 165.793V162.918C88.8732 162.938 87.8107 163.022 87.1232 163.168C86.3524 163.334 85.7795 163.584 85.4045 163.918C85.0295 164.23 84.842 164.678 84.842 165.261C84.842 165.865 85.0503 166.334 85.467 166.668C85.9045 167.001 86.4149 167.168 86.9982 167.168Z" fill="black"/>
<path d="M100.904 156.324C101.362 156.324 101.726 156.355 101.997 156.418C102.289 156.459 102.57 156.543 102.841 156.668L102.122 158.48C101.581 158.23 100.987 158.105 100.341 158.105C99.466 158.105 98.6014 158.397 97.7473 158.98V168.48H95.716V156.48H97.1848L97.6223 157.511C98.6639 156.72 99.7577 156.324 100.904 156.324Z" fill="black"/>
<path d="M109.684 156.324C111.267 156.324 112.486 156.803 113.34 157.761C114.194 158.699 114.621 160.032 114.621 161.761V162.855L114.496 163.105H106.278C106.278 164.126 106.663 165.074 107.434 165.949C108.163 166.678 109.298 167.043 110.84 167.043C111.861 167.043 112.83 166.886 113.746 166.574L114.121 168.074C112.85 168.511 111.569 168.73 110.278 168.73C108.34 168.73 106.861 168.209 105.84 167.168C104.819 166.126 104.309 164.636 104.309 162.699C104.309 160.865 104.757 159.355 105.653 158.168C106.611 156.938 107.955 156.324 109.684 156.324ZM112.559 161.48C112.559 160.438 112.33 159.584 111.871 158.918C111.434 158.251 110.778 157.918 109.903 157.918C108.798 157.918 107.955 158.251 107.371 158.918C106.788 159.584 106.434 160.438 106.309 161.48H112.559Z" fill="black"/>
<path d="M124.681 162.543H116.993V161.074H124.681V162.543Z" fill="black"/>
<path d="M128.371 168.48V151.855H130.403V156.793C131.215 156.418 132.184 156.23 133.309 156.23C134.996 156.23 136.371 156.73 137.434 157.73C138.538 158.834 139.09 160.459 139.09 162.605C139.09 164.459 138.611 165.949 137.653 167.074C136.715 168.178 135.361 168.73 133.59 168.73C132.423 168.73 131.288 168.365 130.184 167.636L129.809 168.48H128.371ZM133.09 167.011C134.423 167.011 135.403 166.647 136.028 165.918C136.653 165.188 136.965 164.043 136.965 162.48C136.965 161.084 136.632 159.97 135.965 159.136C135.319 158.303 134.35 157.886 133.059 157.886C132.08 157.886 131.194 158.043 130.403 158.355V166.293C130.882 166.543 131.309 166.73 131.684 166.855C132.08 166.959 132.548 167.011 133.09 167.011Z" fill="black"/>
<path d="M147.217 168.761C145.404 168.761 143.988 168.199 142.967 167.074C141.967 165.949 141.467 164.438 141.467 162.543C141.467 160.626 141.977 159.115 142.998 158.011C144.04 156.886 145.477 156.324 147.311 156.324C149.144 156.324 150.561 156.876 151.561 157.98C152.561 159.084 153.061 160.595 153.061 162.511C153.061 164.386 152.54 165.897 151.498 167.043C150.457 168.188 149.029 168.761 147.217 168.761ZM147.311 157.918C146.123 157.918 145.196 158.355 144.529 159.23C143.884 160.105 143.561 161.209 143.561 162.543C143.561 163.876 143.884 164.97 144.529 165.824C145.196 166.678 146.123 167.105 147.311 167.105C148.477 167.105 149.384 166.678 150.029 165.824C150.675 164.949 150.998 163.855 150.998 162.543C150.998 161.209 150.665 160.105 149.998 159.23C149.352 158.355 148.457 157.918 147.311 157.918Z" fill="black"/>
<path d="M163.932 160.855C163.932 159.834 163.734 159.105 163.338 158.668C162.963 158.23 162.296 158.011 161.338 158.011C160.317 158.011 159.213 158.293 158.026 158.855V168.48H155.994V156.48H157.401L157.838 157.48C159.276 156.688 160.682 156.293 162.057 156.293C163.328 156.293 164.296 156.657 164.963 157.386C165.63 158.095 165.963 159.084 165.963 160.355V168.48H163.932V160.855Z" fill="black"/>
<path d="M174.161 156.324C175.745 156.324 176.963 156.803 177.818 157.761C178.672 158.699 179.099 160.032 179.099 161.761V162.855L178.974 163.105H170.755C170.755 164.126 171.141 165.074 171.911 165.949C172.641 166.678 173.776 167.043 175.318 167.043C176.338 167.043 177.307 166.886 178.224 166.574L178.599 168.074C177.328 168.511 176.047 168.73 174.755 168.73C172.818 168.73 171.338 168.209 170.318 167.168C169.297 166.126 168.786 164.636 168.786 162.699C168.786 160.865 169.234 159.355 170.13 158.168C171.088 156.938 172.432 156.324 174.161 156.324ZM177.036 161.48C177.036 160.438 176.807 159.584 176.349 158.918C175.911 158.251 175.255 157.918 174.38 157.918C173.276 157.918 172.432 158.251 171.849 158.918C171.266 159.584 170.911 160.438 170.786 161.48H177.036Z" fill="black"/>
<path d="M185.752 167.043C186.481 167.043 187.096 166.907 187.596 166.636C188.117 166.345 188.377 165.928 188.377 165.386C188.377 164.949 188.19 164.605 187.815 164.355C187.44 164.105 186.648 163.73 185.44 163.23L184.252 162.761C183.731 162.511 183.304 162.293 182.971 162.105C182.638 161.897 182.335 161.595 182.065 161.199C181.794 160.782 181.658 160.261 181.658 159.636C181.658 158.511 182.117 157.678 183.033 157.136C183.971 156.595 185.117 156.324 186.471 156.324C187.617 156.324 188.763 156.584 189.908 157.105L189.408 158.605C188.471 158.209 187.565 158.011 186.69 158.011C185.794 158.011 185.065 158.147 184.502 158.418C183.96 158.668 183.69 159.032 183.69 159.511C183.69 159.99 183.877 160.365 184.252 160.636C184.648 160.907 185.315 161.22 186.252 161.574L187.283 161.98C188.429 162.459 189.231 162.959 189.69 163.48C190.148 164.001 190.377 164.688 190.377 165.543C190.377 166.418 189.971 167.178 189.158 167.824C188.346 168.449 187.263 168.761 185.908 168.761C184.367 168.761 182.846 168.459 181.346 167.855L181.908 166.324C183.263 166.803 184.544 167.043 185.752 167.043Z" fill="black"/>
<path d="M201.522 154.168C201.147 154.168 200.834 154.043 200.584 153.793C200.334 153.522 200.209 153.209 200.209 152.855C200.209 152.522 200.334 152.23 200.584 151.98C200.834 151.709 201.147 151.574 201.522 151.574C201.876 151.574 202.178 151.709 202.428 151.98C202.678 152.23 202.803 152.522 202.803 152.855C202.803 153.209 202.678 153.522 202.428 153.793C202.199 154.043 201.897 154.168 201.522 154.168ZM202.522 168.48H200.49V156.48H202.522V168.48Z" fill="black"/>
<path d="M214.029 160.855C214.029 159.834 213.832 159.105 213.436 158.668C213.061 158.23 212.394 158.011 211.436 158.011C210.415 158.011 209.311 158.293 208.123 158.855V168.48H206.092V156.48H207.498L207.936 157.48C209.373 156.688 210.779 156.293 212.154 156.293C213.425 156.293 214.394 156.657 215.061 157.386C215.727 158.095 216.061 159.084 216.061 160.355V168.48H214.029V160.855Z" fill="black"/>
<path d="M222.853 168.48L218.384 156.48H220.571L223.884 165.886L224.009 166.511L224.103 165.886L227.446 156.48H229.54L225.103 168.48H222.853Z" fill="black"/>
<path d="M236.783 156.324C238.367 156.324 239.585 156.803 240.44 157.761C241.294 158.699 241.721 160.032 241.721 161.761V162.855L241.596 163.105H233.377C233.377 164.126 233.763 165.074 234.533 165.949C235.263 166.678 236.398 167.043 237.94 167.043C238.96 167.043 239.929 166.886 240.846 166.574L241.221 168.074C239.95 168.511 238.669 168.73 237.377 168.73C235.44 168.73 233.96 168.209 232.94 167.168C231.919 166.126 231.408 164.636 231.408 162.699C231.408 160.865 231.856 159.355 232.752 158.168C233.71 156.938 235.054 156.324 236.783 156.324ZM239.658 161.48C239.658 160.438 239.429 159.584 238.971 158.918C238.533 158.251 237.877 157.918 237.002 157.918C235.898 157.918 235.054 158.251 234.471 158.918C233.888 159.584 233.533 160.438 233.408 161.48H239.658Z" fill="black"/>
<path d="M252.53 160.855C252.53 159.834 252.333 159.105 251.937 158.668C251.562 158.23 250.895 158.011 249.937 158.011C248.916 158.011 247.812 158.293 246.624 158.855V168.48H244.593V156.48H245.999L246.437 157.48C247.874 156.688 249.28 156.293 250.655 156.293C251.926 156.293 252.895 156.657 253.562 157.386C254.228 158.095 254.562 159.084 254.562 160.355V168.48H252.53V160.855Z" fill="black"/>
<path d="M262.072 168.73C260.864 168.73 260 168.407 259.479 167.761C258.979 167.095 258.729 166.095 258.729 164.761V158.168H256.697V156.48H258.729V153.543L260.76 153.386V156.48H264.697V158.168H260.76V164.636C260.76 165.47 260.885 166.074 261.135 166.449C261.406 166.824 261.916 167.011 262.666 167.011C263.375 167.011 264.01 166.949 264.572 166.824L264.916 168.199C263.979 168.553 263.031 168.73 262.072 168.73Z" fill="black"/>
<path d="M272.412 168.761C270.6 168.761 269.183 168.199 268.162 167.074C267.162 165.949 266.662 164.438 266.662 162.543C266.662 160.626 267.173 159.115 268.194 158.011C269.235 156.886 270.673 156.324 272.506 156.324C274.339 156.324 275.756 156.876 276.756 157.98C277.756 159.084 278.256 160.595 278.256 162.511C278.256 164.386 277.735 165.897 276.694 167.043C275.652 168.188 274.225 168.761 272.412 168.761ZM272.506 157.918C271.319 157.918 270.391 158.355 269.725 159.23C269.079 160.105 268.756 161.209 268.756 162.543C268.756 163.876 269.079 164.97 269.725 165.824C270.391 166.678 271.319 167.105 272.506 167.105C273.673 167.105 274.579 166.678 275.225 165.824C275.871 164.949 276.194 163.855 276.194 162.543C276.194 161.209 275.86 160.105 275.194 159.23C274.548 158.355 273.652 157.918 272.506 157.918Z" fill="black"/>
<path d="M286.377 156.324C286.835 156.324 287.2 156.355 287.471 156.418C287.763 156.459 288.044 156.543 288.315 156.668L287.596 158.48C287.054 158.23 286.46 158.105 285.815 158.105C284.94 158.105 284.075 158.397 283.221 158.98V168.48H281.19V156.48H282.658L283.096 157.511C284.138 156.72 285.231 156.324 286.377 156.324Z" fill="black"/>
<path d="M293.876 174.918H291.782L294.095 169.105L289.282 156.48H291.407L295.095 166.418L298.782 156.48H300.72L293.876 174.918Z" fill="black"/>
<path d="M313.877 167.043C314.606 167.043 315.221 166.907 315.721 166.636C316.242 166.345 316.502 165.928 316.502 165.386C316.502 164.949 316.315 164.605 315.94 164.355C315.565 164.105 314.773 163.73 313.565 163.23L312.377 162.761C311.856 162.511 311.429 162.293 311.096 162.105C310.763 161.897 310.46 161.595 310.19 161.199C309.919 160.782 309.783 160.261 309.783 159.636C309.783 158.511 310.242 157.678 311.158 157.136C312.096 156.595 313.242 156.324 314.596 156.324C315.742 156.324 316.888 156.584 318.033 157.105L317.533 158.605C316.596 158.209 315.69 158.011 314.815 158.011C313.919 158.011 313.19 158.147 312.627 158.418C312.085 158.668 311.815 159.032 311.815 159.511C311.815 159.99 312.002 160.365 312.377 160.636C312.773 160.907 313.44 161.22 314.377 161.574L315.408 161.98C316.554 162.459 317.356 162.959 317.815 163.48C318.273 164.001 318.502 164.688 318.502 165.543C318.502 166.418 318.096 167.178 317.283 167.824C316.471 168.449 315.388 168.761 314.033 168.761C312.492 168.761 310.971 168.459 309.471 167.855L310.033 166.324C311.388 166.803 312.669 167.043 313.877 167.043Z" fill="black"/>
<path d="M325.199 174.918H323.106L325.418 169.105L320.606 156.48H322.731L326.418 166.418L330.106 156.48H332.043L325.199 174.918Z" fill="black"/>
<path d="M338.316 167.043C339.045 167.043 339.659 166.907 340.159 166.636C340.68 166.345 340.941 165.928 340.941 165.386C340.941 164.949 340.753 164.605 340.378 164.355C340.003 164.105 339.211 163.73 338.003 163.23L336.816 162.761C336.295 162.511 335.868 162.293 335.534 162.105C335.201 161.897 334.899 161.595 334.628 161.199C334.357 160.782 334.222 160.261 334.222 159.636C334.222 158.511 334.68 157.678 335.597 157.136C336.534 156.595 337.68 156.324 339.034 156.324C340.18 156.324 341.326 156.584 342.472 157.105L341.972 158.605C341.034 158.209 340.128 158.011 339.253 158.011C338.357 158.011 337.628 158.147 337.066 158.418C336.524 158.668 336.253 159.032 336.253 159.511C336.253 159.99 336.441 160.365 336.816 160.636C337.211 160.907 337.878 161.22 338.816 161.574L339.847 161.98C340.993 162.459 341.795 162.959 342.253 163.48C342.711 164.001 342.941 164.688 342.941 165.543C342.941 166.418 342.534 167.178 341.722 167.824C340.909 168.449 339.826 168.761 338.472 168.761C336.93 168.761 335.409 168.459 333.909 167.855L334.472 166.324C335.826 166.803 337.107 167.043 338.316 167.043Z" fill="black"/>
<path d="M350.232 168.73C349.023 168.73 348.159 168.407 347.638 167.761C347.138 167.095 346.888 166.095 346.888 164.761V158.168H344.857V156.48H346.888V153.543L348.919 153.386V156.48H352.857V158.168H348.919V164.636C348.919 165.47 349.044 166.074 349.294 166.449C349.565 166.824 350.075 167.011 350.825 167.011C351.534 167.011 352.169 166.949 352.732 166.824L353.075 168.199C352.138 168.553 351.19 168.73 350.232 168.73Z" fill="black"/>
<path d="M360.196 156.324C361.78 156.324 362.999 156.803 363.853 157.761C364.707 158.699 365.134 160.032 365.134 161.761V162.855L365.009 163.105H356.79C356.79 164.126 357.176 165.074 357.946 165.949C358.676 166.678 359.811 167.043 361.353 167.043C362.374 167.043 363.342 166.886 364.259 166.574L364.634 168.074C363.363 168.511 362.082 168.73 360.79 168.73C358.853 168.73 357.374 168.209 356.353 167.168C355.332 166.126 354.821 164.636 354.821 162.699C354.821 160.865 355.269 159.355 356.165 158.168C357.124 156.938 358.467 156.324 360.196 156.324ZM363.071 161.48C363.071 160.438 362.842 159.584 362.384 158.918C361.946 158.251 361.29 157.918 360.415 157.918C359.311 157.918 358.467 158.251 357.884 158.918C357.301 159.584 356.946 160.438 356.821 161.48H363.071Z" fill="black"/>
<path d="M382.35 160.855C382.35 158.897 381.569 157.918 380.006 157.918C379.235 157.918 378.277 158.272 377.131 158.98C377.194 159.209 377.225 159.668 377.225 160.355V168.48H375.194V160.855C375.194 158.897 374.402 157.918 372.819 157.918C372.069 157.918 371.141 158.22 370.037 158.824V168.48H368.006V156.48H369.412L369.85 157.48C370.558 157.001 371.214 156.668 371.819 156.48C372.298 156.355 372.85 156.293 373.475 156.293C374.162 156.293 374.766 156.428 375.287 156.699C375.829 156.97 376.266 157.345 376.6 157.824C377.287 157.324 377.944 156.949 378.569 156.699C379.194 156.428 379.881 156.293 380.631 156.293C381.86 156.293 382.798 156.668 383.444 157.418C384.11 158.147 384.444 159.126 384.444 160.355V168.48H382.35V160.855Z" fill="black"/>
</svg>
